<?xml version="1.0" encoding="UTF-8"?>
<svg version="1.1" xmlns="http://www.w3.org/2000/svg" width="83" height="123">
<path d="M0 0 C2.71015425 1.18513346 4.21480352 2.44829273 6.2421875 4.59765625 C6.93183594 5.32210938 7.62148438 6.0465625 8.33203125 6.79296875 C10.77291923 9.48216203 13.15566435 12.21570898 15.51953125 14.97265625 C17.54923211 17.23836884 19.68894423 19.34969834 21.8671875 21.47265625 C32.97428051 32.54197003 39.55495587 44.24595933 39.6796875 60.09765625 C39.6902306 72.49399539 36.62983538 80.73395004 28.3671875 90.03515625 C27.51511719 90.99550781 26.66304688 91.95585938 25.78515625 92.9453125 C20.79312447 98.49721482 15.61264773 103.82312952 10.3046875 109.07421875 C7.01013683 112.40862285 4.09359809 115.72761718 1.8046875 119.84765625 C0.3671875 122.03515625 0.3671875 122.03515625 -1.72265625 122.671875 C-2.35300781 122.79175781 -2.98335937 122.91164063 -3.6328125 123.03515625 C-3.60550049 121.82045654 -3.57818848 120.60575684 -3.55004883 119.35424805 C-3.46250369 114.80073381 -3.44864322 110.24933635 -3.45581055 105.69506836 C-3.44888081 103.73298496 -3.42258048 101.77086244 -3.37573242 99.80932617 C-2.74396189 86.84245594 -2.74396189 86.84245594 -8.43132019 75.74263 C-13.00142921 71.44091999 -17.90088221 68.4916978 -23.6328125 66.03515625 C-25.97263992 64.0468522 -26.58841516 63.18103321 -27.5078125 60.16015625 C-27.65805605 56.40406762 -26.91625634 54.97101262 -24.6328125 52.03515625 C-21.48861539 49.93902485 -21.11155024 49.76804848 -17.6328125 50.22265625 C-16.9521875 50.29871094 -16.2715625 50.37476563 -15.5703125 50.453125 C-13.13397059 51.18500997 -12.14280541 51.99249713 -10.6328125 54.03515625 C-10.296875 56.12109375 -10.296875 56.12109375 -10.2578125 58.41015625 C-9.97407113 62.27534421 -9.72301391 62.92735456 -7.0703125 66.09765625 C-5.86375 67.05671875 -5.86375 67.05671875 -4.6328125 68.03515625 C-3.53688669 52.54624855 -3.53688669 52.54624855 -7.7578125 38.16015625 C-9.6328125 35.03515625 -9.6328125 35.03515625 -9.6328125 31.84765625 C-8.43265143 28.47220325 -7.62918791 27.03273985 -4.6328125 25.03515625 C-0.62102489 24.22785607 2.34077941 24.4193114 5.8671875 26.53515625 C7.97266193 30.0442803 8.08373934 33.03579713 7.3671875 37.03515625 C6.39446075 38.3885152 5.3932609 39.72178229 4.3671875 41.03515625 C3.30857078 46.71319137 3.24713062 52.27242604 3.3671875 58.03515625 C7.60990895 54.81653998 8.34042894 51.24591462 9.4609375 46.27734375 C10.3671875 44.03515625 10.3671875 44.03515625 12.27734375 42.75390625 C15.19066083 41.75194299 17.30289992 41.65993736 20.3671875 42.03515625 C23.2421875 43.53515625 23.2421875 43.53515625 25.3671875 46.03515625 C26.02720747 48.83593664 25.97497909 51.22773793 25.3671875 54.03515625 C23.21048921 57.36006611 21.53893858 57.98185419 17.7421875 59.16015625 C11.61844249 61.29768989 7.03303676 65.78666123 3.3671875 71.03515625 C2.59543118 74.54617111 2.69355935 77.51732035 3.3671875 81.03515625 C4.05425781 80.33648437 4.74132813 79.6378125 5.44921875 78.91796875 C6.80080078 77.55285156 6.80080078 77.55285156 8.1796875 76.16015625 C9.07300781 75.25523438 9.96632812 74.3503125 10.88671875 73.41796875 C15.40244391 69.08002804 15.40244391 69.08002804 19.0546875 68.91015625 C19.8178125 68.95140625 20.5809375 68.99265625 21.3671875 69.03515625 C21.85468643 73.08561036 21.65068743 74.64604875 19.20703125 78 C18.25411405 79.00486725 17.2858322 79.99533109 16.3046875 80.97265625 C15.55674927 81.76023315 15.55674927 81.76023315 14.79370117 82.5637207 C12.62805194 84.82725238 10.43020045 86.97967045 8.078125 89.05078125 C4.50107704 92.05311369 4.50107704 92.05311369 3.0925293 96.32739258 C3.12515869 97.1242749 3.15778809 97.92115723 3.19140625 98.7421875 C3.21678467 99.54760986 3.24216309 100.35303223 3.26831055 101.18286133 C3.30093994 101.79411865 3.33356934 102.40537598 3.3671875 103.03515625 C6.42165075 100.06888079 9.45823626 97.08489709 12.4921875 94.09765625 C13.348125 93.26685547 14.2040625 92.43605469 15.0859375 91.58007812 C24.65059951 82.1257776 30.74181641 73.87672257 30.9296875 59.97265625 C30.94872175 46.5330132 24.12178195 36.91331168 15.015625 27.65625 C14.14164063 26.79128906 13.26765625 25.92632813 12.3671875 25.03515625 C11.67882813 24.34550781 10.99046875 23.65585937 10.28125 22.9453125 C9.14914019 21.81567455 8.01292031 20.69012794 6.87109375 19.5703125 C4.53650626 17.18721411 2.45812326 14.63298553 0.3671875 12.03515625 C-5.31946495 14.4689399 -9.21136378 19.28570807 -13.5078125 23.59765625 C-14.39339844 24.46712891 -15.27898438 25.33660156 -16.19140625 26.23242188 C-26.2950958 36.32858259 -32.57732757 45.40574674 -33.0703125 59.97265625 C-32.66694531 75.46867916 -24.45811847 84.5589805 -13.76953125 94.87109375 C-11.33681092 97.33494579 -9.71534317 98.98701671 -9.4375 102.515625 C-9.46070313 103.40894531 -9.48390625 104.30226563 -9.5078125 105.22265625 C-9.52585938 106.12371094 -9.54390625 107.02476563 -9.5625 107.953125 C-9.58570313 108.64019531 -9.60890625 109.32726562 -9.6328125 110.03515625 C-12.83146543 108.62122998 -15.01237611 106.92326591 -17.49609375 104.47265625 C-18.57467651 103.40869629 -18.57467651 103.40869629 -19.67504883 102.32324219 C-32.27083381 89.62857643 -41.86043452 78.8787601 -42.1328125 60.03515625 C-41.90501304 42.8722117 -33.86163659 32.04398549 -22.6328125 20.03515625 C-21.47191273 18.771516 -20.31180892 17.50714422 -19.15234375 16.2421875 C-17.91715324 14.90189517 -16.68147638 13.56205089 -15.4453125 12.22265625 C-14.86330078 11.58827637 -14.28128906 10.95389648 -13.68164062 10.30029297 C-4.15995893 0.05554841 -4.15995893 0.05554841 0 0 Z M-2.6328125 32.03515625 C-2.3028125 33.02515625 -1.9728125 34.01515625 -1.6328125 35.03515625 C-0.6428125 34.70515625 0.3471875 34.37515625 1.3671875 34.03515625 C1.3671875 33.37515625 1.3671875 32.71515625 1.3671875 32.03515625 C0.0471875 32.03515625 -1.2728125 32.03515625 -2.6328125 32.03515625 Z M15.3671875 49.03515625 C15.3671875 50.02515625 15.3671875 51.01515625 15.3671875 52.03515625 C16.3571875 52.03515625 17.3471875 52.03515625 18.3671875 52.03515625 C18.6971875 51.04515625 19.0271875 50.05515625 19.3671875 49.03515625 C18.0471875 49.03515625 16.7271875 49.03515625 15.3671875 49.03515625 Z M-19.6328125 57.03515625 C-19.9628125 58.02515625 -20.2928125 59.01515625 -20.6328125 60.03515625 C-19.3128125 60.03515625 -17.9928125 60.03515625 -16.6328125 60.03515625 C-16.9628125 59.04515625 -17.2928125 58.05515625 -17.6328125 57.03515625 C-18.2928125 57.03515625 -18.9528125 57.03515625 -19.6328125 57.03515625 Z " fill="#4C9873" transform="translate(42.6328125,-0.03515625)"/>
<path d="M0 0 C0.66 0.33 1.32 0.66 2 1 C1.33468262 1.64960693 0.66936523 2.29921387 -0.01611328 2.96850586 C-2.51604662 5.41685604 -5.00873197 7.8721623 -7.49707031 10.33227539 C-8.56885805 11.38911468 -9.64333964 12.44323009 -10.72070312 13.49438477 C-21.82024776 24.33088257 -29.89248558 33.83320285 -30.4375 49.9375 C-30.00588132 66.51885086 -20.36562305 76.04600918 -9 87 C-9.33 87.66 -9.66 88.32 -10 89 C-20.53339959 79.39093924 -32.13746502 68.73743524 -33.16796875 53.51953125 C-33.26366247 40.25638181 -29.92699345 29.88086027 -20.58877563 20.11636353 C-17.80649872 17.30722118 -14.97303909 14.55471599 -12.125 11.8125 C-10.9467512 10.6593928 -9.76965863 9.50510292 -8.59375 8.34960938 C-5.74229046 5.55261591 -2.87574261 2.77201161 0 0 Z " fill="#10231E" transform="translate(40,10)"/>
<path d="M0 0 C2.71015425 1.18513346 4.21480352 2.44829273 6.2421875 4.59765625 C6.93183594 5.32210938 7.62148438 6.0465625 8.33203125 6.79296875 C10.76290576 9.47112992 13.13577239 12.1938037 15.4921875 14.9375 C18.94661161 18.80213698 22.66556349 22.40907559 26.3671875 26.03515625 C26.0371875 26.69515625 25.7071875 27.35515625 25.3671875 28.03515625 C22.67537475 25.37281425 19.98956603 22.70448958 17.3046875 20.03515625 C16.55251953 19.29136719 15.80035156 18.54757813 15.02539062 17.78125 C10.25900379 13.03549687 5.72037737 8.16292574 1.3671875 3.03515625 C-3.20118213 3.89680318 -5.567204 6.58776399 -8.7109375 9.8203125 C-9.28237488 10.39599472 -9.85381226 10.97167694 -10.44256592 11.56480408 C-12.26315052 13.40215944 -14.07301818 15.24967757 -15.8828125 17.09765625 C-17.11649503 18.34638763 -18.35086228 19.59444294 -19.5859375 20.84179688 C-22.60955905 23.89846645 -25.62361171 26.96429151 -28.6328125 30.03515625 C-29.2928125 29.70515625 -29.9528125 29.37515625 -30.6328125 29.03515625 C-25.87938852 23.54253495 -21.03102545 18.15363888 -16.0703125 12.84765625 C-15.43673828 12.16251953 -14.80316406 11.47738281 -14.15039062 10.77148438 C-4.13548091 0.05522156 -4.13548091 0.05522156 0 0 Z " fill="#3C7A5D" transform="translate(42.6328125,-0.03515625)"/>
<path d="M0 0 C4.14182257 0.50877059 6.0254538 1.54150807 8.875 4.5625 C9.56464844 5.28695313 10.25429688 6.01140625 10.96484375 6.7578125 C13.39571826 9.43597367 15.76858489 12.15864745 18.125 14.90234375 C21.57942411 18.76698073 25.29837599 22.37391934 29 26 C28.67 26.66 28.34 27.32 28 28 C25.30818725 25.337658 22.62237853 22.66933333 19.9375 20 C19.18533203 19.25621094 18.43316406 18.51242188 17.65820312 17.74609375 C13.44569097 13.55181758 9.41661412 9.29236803 5.60766602 4.7265625 C3.88723582 2.87889623 2.05769317 1.45531222 0 0 Z " fill="#193B30" transform="translate(40,0)"/>
<path d="M0 0 C4.41510774 0.48713098 6.30446645 1.85053197 9.3125 5.0625 C10.00988281 5.79597656 10.70726562 6.52945312 11.42578125 7.28515625 C11.94527344 7.85105469 12.46476562 8.41695312 13 9 C10 9 10 9 7.625 6.75 C6.75875 5.8425 5.8925 4.935 5 4 C3.35135455 2.64444707 1.68996005 1.30368347 0 0 Z " fill="#0D211C" transform="translate(40,0)"/>
</svg>
